<?xml version="1.0" standalone="no"?>
<!DOCTYPE svg PUBLIC "-//W3C//DTD SVG 20010904//EN"
 "http://www.w3.org/TR/2001/REC-SVG-20010904/DTD/svg10.dtd">
<svg version="1.0" xmlns="http://www.w3.org/2000/svg"
 width="250.000000pt" height="250.000000pt" viewBox="0 0 250.000000 250.000000"
 preserveAspectRatio="xMidYMid meet">
<metadata>
Created by potrace 1.11, written by Peter Selinger 2001-2013
</metadata>
<g transform="translate(0.000000,250.000000) scale(0.100000,-0.100000)"
fill="#000000" stroke="none">
<path d="M1010 2441 c-466 -103 -821 -479 -916 -969 -23 -117 -23 -347 0 -464
33 -175 124 -384 221 -513 184 -245 447 -410 734 -460 107 -19 295 -19 402 0
230 40 436 149 610 324 184 183 299 406 345 664 19 108 18 331 -1 443 -80 458
-419 838 -856 960 -82 23 -118 27 -274 30 -149 3 -194 1 -265 -15z m458 -36
c369 -77 678 -339 827 -700 234 -566 5 -1228 -526 -1519 -260 -143 -603 -169
-882 -69 -386 138 -665 466 -754 887 -24 114 -24 362 0 476 107 502 492 871
979 940 82 12 268 4 356 -15z"/>
<path d="M580 1555 l0 -545 -45 0 -45 0 0 -65 0 -65 45 0 45 0 0 -240 0 -240
140 0 140 0 0 240 0 239 158 3 157 3 3 62 3 62 -158 3 -158 3 -3 473 -2 472
133 0 c74 0 162 3 196 6 l61 7 0 -787 0 -786 163 0 c257 0 355 32 487 156 156
147 243 336 270 585 49 447 -211 896 -550 949 -37 6 -273 10 -552 10 l-488 0
0 -545z m1063 400 c109 -28 184 -81 270 -187 76 -96 133 -221 157 -348 16 -84
13 -274 -5 -365 -59 -286 -256 -502 -482 -528 l-43 -5 0 724 0 724 23 0 c12 0
49 -7 80 -15z"/>
</g>
</svg>
