<?xml version="1.0" encoding="utf-8"?>
<!-- Generator: Adobe Illustrator 16.0.0, SVG Export Plug-In . SVG Version: 6.00 Build 0)  -->
<!DOCTYPE svg PUBLIC "-//W3C//DTD SVG 1.1//EN" "http://www.w3.org/Graphics/SVG/1.1/DTD/svg11.dtd">
<svg version="1.1" id="Capa_1" xmlns="http://www.w3.org/2000/svg" xmlns:xlink="http://www.w3.org/1999/xlink" x="0px" y="0px"
	 width="414.383px" height="414.383px" viewBox="0 0 414.383 414.383" enable-background="new 0 0 414.383 414.383"
	 xml:space="preserve">
<g>
	<g>
		<path fill="#70CCD8" d="M182.069,107.05V65.245H86.774v41.805c-26.269,4.539-45.691,14.609-57.669,30.152
			c-12.203,15.819-16.579,36.876-13.034,62.608C39.35,368.463,56.835,388.547,62.587,395.157
			c14.483,16.635,45.344,19.229,62.937,19.229l17.733-0.018c17.586,0,48.524-2.561,63.015-19.211
			c5.741-6.607,23.236-26.693,46.514-195.347c3.541-25.717-0.822-46.789-13.033-62.608
			C227.773,121.66,208.346,111.589,182.069,107.05z M229.461,196.583c-20.149,145.929-35.351,176.658-40.953,183.097
			c-5.881,6.752-23.648,11.129-45.252,11.129l-17.733,0.018c-21.558,0-39.285-4.377-45.182-11.146
			c-5.596-6.42-20.787-37.129-40.938-183.097c-2.645-19.232,0.165-34.376,8.352-44.998c8.203-10.629,22.682-17.821,43.036-21.328
			c11.289-1.956,19.542-11.754,19.542-23.207V88.796h48.191v18.254c0,11.453,8.251,21.251,19.534,23.207
			c20.361,3.507,34.842,10.682,43.046,21.328C229.292,162.215,232.113,177.351,229.461,196.583z"/>
		<path fill="#70CCD8" d="M138.907,149.684h-8.971c-23.646,0-75.099,3.236-67.735,63.888
			c8.065,66.376,18.434,129.392,29.384,143.683c8.077,10.564,27.808,11.93,37.558,11.93h10.534c9.752,0,29.485-1.365,37.574-11.93
			c10.952-14.273,21.319-77.307,29.393-143.683C214.021,152.919,162.561,149.684,138.907,149.684z"/>
		<path fill="#70CCD8" d="M383.938,180.506h-16.197V73.561c9.934-53.283,11.032-53.523,11.032-60.472
			c0-7.215-5.858-13.088-13.08-13.088c-3.183,0-6.063,1.192-8.34,3.094C355.081,1.2,352.2,0,349.01,0
			c-3.174,0-6.071,1.192-8.348,3.094C338.395,1.2,335.497,0,332.315,0c-7.21,0-13.098,5.865-13.098,13.088
			c0,6.941,1.144,7.189,11.058,60.418V180.52h-16.222v-0.006c-8.588,0-15.573,6.987-15.573,15.589v202.671
			c0,8.615,7.001,15.586,15.573,15.586h69.854c8.604,0,15.598-6.98,15.598-15.586v-202.68
			C399.516,187.485,392.526,180.506,383.938,180.506z"/>
	</g>
</g>
</svg>
