<?xml version="1.0" encoding="utf-8"?>
<!-- Generator: Adobe Illustrator 16.0.0, SVG Export Plug-In . SVG Version: 6.00 Build 0)  -->
<!DOCTYPE svg PUBLIC "-//W3C//DTD SVG 1.1//EN" "http://www.w3.org/Graphics/SVG/1.1/DTD/svg11.dtd">
<svg version="1.1" id="Layer_1" xmlns="http://www.w3.org/2000/svg" xmlns:xlink="http://www.w3.org/1999/xlink" x="0px" y="0px"
	 width="144px" height="40.334px" viewBox="0 0 144 40.334" enable-background="new 0 0 144 40.334" xml:space="preserve">
<g>
	<path fill="#8551A0" d="M15.502,19.263h-4.816v7.526H6.311v-7.526H4.916v-1.954h1.395V0.47h9.164v2.043h-4.789v14.796h4.816V19.263
		z"/>
	<path fill="#8551A0" d="M21.683,7.487c0,0.509-0.24,0.957-0.728,1.338c-0.486,0.384-1.067,0.574-1.743,0.574
		c-0.678,0-1.258-0.19-1.742-0.574c-0.487-0.381-0.729-0.829-0.729-1.338c0-0.539,0.242-1.008,0.729-1.404
		c0.484-0.396,1.064-0.594,1.742-0.594c0.676,0,1.257,0.197,1.743,0.594C21.442,6.479,21.683,6.948,21.683,7.487z M21.084,26.789
		h-3.741V12.036h3.741V26.789z"/>
	<path fill="#8551A0" d="M33.035,26.789h-1.49v-9.269c0-0.908-0.245-1.693-0.728-2.36c-0.49-0.665-1.069-0.999-1.744-0.999
		c-0.677,0-1.254,0.334-1.729,0.999c-0.475,0.667-0.712,1.452-0.712,2.36v9.269h-3.709V12.036h3.709v1.061
		c0.76-0.707,1.573-1.061,2.441-1.061c1.099,0,2.033,0.53,2.806,1.594c0.771,1.062,1.156,2.36,1.156,3.891V26.789z"/>
	<path fill="#8551A0" d="M45.241,19.519c0,2.068-0.556,3.799-1.663,5.188c-1.112,1.391-2.395,2.083-3.854,2.083
		c-1.08,0-2.029-0.341-2.854-1.021c-0.106,0.34-0.157,0.596-0.157,0.766c0.04,0.594,0.36,1.034,0.95,1.318l4.278,2.721
		c1.607,1.047,2.409,2.878,2.409,5.485c0,1.388-0.209,2.763-0.633,4.125l-0.981-0.555c0.23-1.163,0.346-1.757,0.346-1.784
		c0-0.512-0.282-0.965-0.854-1.361l-4.342-2.807c-1.67-1.049-2.505-2.82-2.505-5.315c0-1.36,0.179-2.534,0.538-3.528
		c-1.1-1.617-1.647-3.386-1.647-5.314c0-2.012,0.543-3.749,1.633-5.209c1.089-1.459,2.36-2.19,3.82-2.19
		c0.864,0,1.809,0.356,2.823,1.063c0.526-0.878,0.79-1.912,0.79-3.102l1.458-0.595c0.023,0.142,0.03,0.368,0.03,0.677
		c0,1.617-0.369,3.092-1.108,4.424C44.733,15.948,45.241,17.591,45.241,19.519z M42.483,23.261c0.801-1.05,1.203-2.296,1.203-3.742
		c0-1.445-0.392-2.686-1.174-3.722c-0.78-1.034-1.71-1.55-2.788-1.55c-0.656,0-1.248,0.184-1.775,0.553v9.439
		c0.571,0.395,1.164,0.594,1.775,0.594C40.761,24.833,41.679,24.31,42.483,23.261z"/>
	<path fill="#8551A0" d="M57.411,18.583h-7.19v5.611c0.63,0.37,1.211,0.554,1.739,0.554c1.184,0,2.18-0.608,2.981-1.828l1.426,0.893
		c-0.486,0.908-1.122,1.63-1.902,2.169c-0.782,0.538-1.618,0.808-2.505,0.808c-1.501,0-2.79-0.723-3.866-2.167
		c-1.076-1.447-1.62-3.175-1.62-5.189c0-2.039,0.548-3.783,1.634-5.228c1.091-1.448,2.374-2.169,3.853-2.169
		c1.353,0,2.56,0.631,3.617,1.893C56.63,15.188,57.244,16.741,57.411,18.583z M55.287,16.585c-0.759-1.643-1.866-2.467-3.327-2.467
		c-0.718,0-1.298,0.17-1.739,0.51v1.957H55.287z"/>
	<path fill="#8551A0" d="M65.242,14.247c-1.902,0-2.854,1.092-2.854,3.273v9.269h-3.74V12.036h3.74v1.104
		c0.675-0.708,1.511-1.063,2.504-1.063h0.35V14.247z"/>
	<path fill="#70CCD8" d="M83.47,4.382c1.946,2.609,2.918,5.699,2.918,9.27s-0.972,6.654-2.918,9.248
		c-1.943,2.593-4.248,3.89-6.912,3.89h-4.533V2.513h-1.583V0.47h6.116C79.222,0.47,81.526,1.774,83.47,4.382z M84.899,13.651
		c0-3.033-0.828-5.648-2.475-7.844c-1.649-2.197-3.627-3.295-5.929-3.295v22.32c2.302,0,4.279-1.098,5.929-3.295
		C84.071,19.343,84.899,16.712,84.899,13.651z"/>
	<path fill="#70CCD8" d="M92.568,7.487c0,0.509-0.244,0.957-0.73,1.338c-0.484,0.384-1.069,0.574-1.742,0.574
		c-0.678,0-1.258-0.19-1.746-0.574c-0.483-0.381-0.728-0.829-0.728-1.338c0-0.539,0.244-1.008,0.728-1.404
		c0.488-0.396,1.068-0.594,1.746-0.594c0.673,0,1.258,0.197,1.742,0.594C92.324,6.479,92.568,6.948,92.568,7.487z M91.966,26.789
		h-3.739V12.036h3.739V26.789z"/>
	<path fill="#70CCD8" d="M103.919,26.789h-1.493v-9.269c0-0.908-0.242-1.693-0.728-2.36c-0.487-0.665-1.067-0.999-1.744-0.999
		c-0.675,0-1.251,0.334-1.727,0.999c-0.48,0.667-0.711,1.452-0.711,2.36v9.269h-3.714V12.036h3.714v1.061
		c0.758-0.707,1.569-1.061,2.438-1.061c1.099,0,2.035,0.53,2.805,1.594c0.772,1.062,1.16,2.36,1.16,3.891V26.789z"/>
	<path fill="#70CCD8" d="M116.125,19.519c0,2.068-0.558,3.799-1.665,5.188c-1.109,1.391-2.394,2.083-3.852,2.083
		c-1.079,0-2.03-0.341-2.856-1.021c-0.103,0.34-0.157,0.596-0.157,0.766c0.042,0.594,0.36,1.034,0.952,1.318l4.279,2.721
		c1.604,1.047,2.407,2.878,2.407,5.485c0,1.388-0.209,2.763-0.634,4.125l-0.982-0.555c0.233-1.163,0.35-1.757,0.35-1.784
		c0-0.512-0.283-0.965-0.855-1.361l-4.341-2.807c-1.673-1.049-2.504-2.82-2.504-5.315c0-1.36,0.176-2.534,0.537-3.528
		c-1.1-1.617-1.65-3.386-1.65-5.314c0-2.012,0.546-3.749,1.634-5.209c1.088-1.459,2.361-2.19,3.821-2.19
		c0.863,0,1.806,0.356,2.82,1.063c0.527-0.878,0.793-1.912,0.793-3.102l1.457-0.595c0.021,0.142,0.032,0.368,0.032,0.677
		c0,1.617-0.369,3.092-1.111,4.424C115.613,15.948,116.125,17.591,116.125,19.519z M113.366,23.261
		c0.801-1.05,1.205-2.296,1.205-3.742c0-1.445-0.394-2.686-1.175-3.722c-0.78-1.034-1.714-1.55-2.788-1.55
		c-0.658,0-1.249,0.184-1.777,0.553v9.439c0.575,0.395,1.162,0.594,1.777,0.594C111.641,24.833,112.562,24.31,113.366,23.261z"/>
	<path fill="#70CCD8" d="M121.067,26.789h-3.709V0.429h3.709V26.789z"/>
	<path fill="#70CCD8" d="M133.24,18.583h-7.196v5.611c0.634,0.37,1.215,0.554,1.742,0.554c1.181,0,2.178-0.608,2.981-1.828
		l1.426,0.893c-0.487,0.908-1.12,1.63-1.904,2.169c-0.781,0.538-1.616,0.808-2.503,0.808c-1.501,0-2.787-0.723-3.866-2.167
		c-1.078-1.447-1.617-3.175-1.617-5.189c0-2.039,0.543-3.783,1.634-5.228c1.087-1.448,2.37-2.169,3.85-2.169
		c1.354,0,2.558,0.631,3.616,1.893C132.456,15.188,133.068,16.741,133.24,18.583z M131.116,16.585
		c-0.76-1.643-1.871-2.467-3.33-2.467c-0.72,0-1.299,0.17-1.742,0.51v1.957H131.116z"/>
	<path fill="#70CCD8" d="M139.55,20.965c0.103,0.482,0.156,0.907,0.156,1.274c0,0.936-0.268,1.85-0.807,2.744
		c-0.539,0.892-1.099,1.578-1.682,2.061c-0.581,0.48-1.199,0.907-1.854,1.275l-0.38-1.318c0.337-0.169,0.585-0.303,0.746-0.404
		c0.156-0.1,0.317-0.268,0.475-0.51c0.16-0.24,0.237-0.518,0.237-0.827c-0.063-0.456-0.104-0.723-0.129-0.809l-1.646-6.081
		c-0.126-0.453-0.189-0.878-0.189-1.275c0-1.389,0.447-2.615,1.347-3.678c0.897-1.062,1.927-1.85,3.09-2.359l0.35,1.318
		c-0.338,0.141-0.593,0.263-0.76,0.361c-0.171,0.1-0.335,0.275-0.494,0.531c-0.157,0.256-0.234,0.553-0.234,0.893
		c0.063,0.397,0.113,0.668,0.157,0.808L139.55,20.965z"/>
</g>
</svg>
