<?xml version="1.0" encoding="utf-8"?>
<!-- Generator: Adobe Illustrator 16.0.0, SVG Export Plug-In . SVG Version: 6.00 Build 0)  -->
<!DOCTYPE svg PUBLIC "-//W3C//DTD SVG 1.1//EN" "http://www.w3.org/Graphics/SVG/1.1/DTD/svg11.dtd">
<svg version="1.1" id="Layer_1" xmlns="http://www.w3.org/2000/svg" xmlns:xlink="http://www.w3.org/1999/xlink" x="0px" y="0px"
	 width="144px" height="60.75px" viewBox="0 -4.333 144 60.75" enable-background="new 0 -4.333 144 60.75" xml:space="preserve">
<g>
	<path fill="#8551A0" d="M15.502,19.263h-4.816v7.526H6.311v-7.526H4.916v-1.954h1.395V0.47h9.164v2.043h-4.789v14.796h4.816V19.263
		z"/>
	<path fill="#8551A0" d="M21.683,7.487c0,0.509-0.24,0.957-0.728,1.338c-0.486,0.384-1.067,0.574-1.743,0.574
		c-0.678,0-1.258-0.19-1.742-0.574c-0.487-0.381-0.729-0.829-0.729-1.338c0-0.539,0.242-1.008,0.729-1.404
		c0.484-0.396,1.064-0.594,1.742-0.594c0.676,0,1.257,0.197,1.743,0.594C21.442,6.479,21.683,6.948,21.683,7.487z M21.084,26.789
		h-3.741V12.036h3.741V26.789z"/>
	<path fill="#8551A0" d="M33.035,26.789h-1.49V17.52c0-0.908-0.245-1.693-0.728-2.36c-0.49-0.665-1.069-0.999-1.744-0.999
		c-0.677,0-1.254,0.334-1.729,0.999c-0.475,0.667-0.712,1.452-0.712,2.36v9.269h-3.709V12.036h3.709v1.061
		c0.76-0.707,1.573-1.061,2.441-1.061c1.099,0,2.033,0.53,2.806,1.594c0.771,1.062,1.156,2.36,1.156,3.891V26.789z"/>
	<path fill="#8551A0" d="M45.241,19.519c0,2.068-0.556,3.798-1.663,5.188c-1.112,1.392-2.395,2.083-3.854,2.083
		c-1.08,0-2.029-0.341-2.854-1.021c-0.106,0.34-0.157,0.597-0.157,0.767c0.04,0.594,0.36,1.034,0.95,1.317l4.278,2.722
		c1.607,1.047,2.409,2.878,2.409,5.485c0,1.387-0.209,2.762-0.633,4.125l-0.981-0.556c0.23-1.163,0.346-1.757,0.346-1.784
		c0-0.512-0.282-0.965-0.854-1.361l-4.342-2.807c-1.67-1.049-2.505-2.82-2.505-5.314c0-1.36,0.179-2.534,0.538-3.528
		c-1.1-1.617-1.647-3.386-1.647-5.314c0-2.012,0.543-3.749,1.633-5.209c1.089-1.459,2.36-2.19,3.82-2.19
		c0.864,0,1.809,0.356,2.823,1.063c0.526-0.878,0.79-1.912,0.79-3.102l1.458-0.595c0.023,0.142,0.03,0.368,0.03,0.677
		c0,1.617-0.369,3.092-1.108,4.424C44.733,15.948,45.241,17.591,45.241,19.519z M42.483,23.261c0.801-1.05,1.203-2.296,1.203-3.742
		c0-1.445-0.392-2.686-1.174-3.722c-0.78-1.034-1.71-1.55-2.788-1.55c-0.656,0-1.248,0.184-1.775,0.553v9.439
		c0.571,0.395,1.164,0.594,1.775,0.594C40.761,24.833,41.679,24.31,42.483,23.261z"/>
	<path fill="#8551A0" d="M57.411,18.583h-7.19v5.611c0.63,0.369,1.211,0.554,1.739,0.554c1.184,0,2.18-0.608,2.981-1.828
		l1.426,0.894c-0.486,0.908-1.122,1.629-1.902,2.168c-0.782,0.539-1.618,0.809-2.505,0.809c-1.501,0-2.79-0.723-3.866-2.167
		c-1.076-1.447-1.62-3.175-1.62-5.189c0-2.039,0.548-3.783,1.634-5.228c1.091-1.448,2.374-2.169,3.853-2.169
		c1.353,0,2.56,0.631,3.617,1.893C56.63,15.188,57.244,16.741,57.411,18.583z M55.287,16.585c-0.759-1.643-1.866-2.467-3.327-2.467
		c-0.718,0-1.298,0.17-1.739,0.51v1.957H55.287z"/>
	<path fill="#8551A0" d="M65.242,14.247c-1.902,0-2.854,1.092-2.854,3.273v9.269h-3.74V12.036h3.74v1.104
		c0.675-0.708,1.511-1.063,2.504-1.063h0.35V14.247z"/>
	<path fill="#70CCD8" d="M83.471,4.382c1.945,2.609,2.918,5.699,2.918,9.27c0,3.571-0.973,6.654-2.918,9.248
		c-1.943,2.594-4.248,3.891-6.912,3.891h-4.534V2.513h-1.583V0.47h6.117C79.223,0.47,81.525,1.774,83.471,4.382z M84.898,13.651
		c0-3.033-0.828-5.648-2.475-7.844c-1.648-2.197-3.627-3.295-5.929-3.295v22.32c2.302,0,4.278-1.099,5.929-3.295
		C84.07,19.343,84.898,16.712,84.898,13.651z"/>
	<path fill="#70CCD8" d="M92.568,7.487c0,0.509-0.244,0.957-0.73,1.338c-0.484,0.384-1.068,0.574-1.742,0.574
		c-0.678,0-1.258-0.19-1.746-0.574c-0.482-0.381-0.728-0.829-0.728-1.338c0-0.539,0.244-1.008,0.728-1.404
		c0.488-0.396,1.068-0.594,1.746-0.594c0.674,0,1.258,0.197,1.742,0.594C92.324,6.479,92.568,6.948,92.568,7.487z M91.966,26.789
		h-3.739V12.036h3.739V26.789z"/>
	<path fill="#70CCD8" d="M103.919,26.789h-1.493V17.52c0-0.908-0.242-1.693-0.728-2.36c-0.487-0.665-1.067-0.999-1.744-0.999
		c-0.675,0-1.251,0.334-1.728,0.999c-0.479,0.667-0.711,1.452-0.711,2.36v9.269h-3.714V12.036h3.714v1.061
		c0.758-0.707,1.569-1.061,2.438-1.061c1.099,0,2.035,0.53,2.805,1.594c0.772,1.062,1.16,2.36,1.16,3.891V26.789z"/>
	<path fill="#70CCD8" d="M116.125,19.519c0,2.068-0.559,3.798-1.665,5.188c-1.108,1.392-2.394,2.083-3.853,2.083
		c-1.078,0-2.029-0.341-2.855-1.021c-0.104,0.34-0.156,0.597-0.156,0.767c0.041,0.594,0.359,1.034,0.951,1.317l4.279,2.722
		c1.604,1.047,2.406,2.878,2.406,5.485c0,1.387-0.209,2.762-0.633,4.125l-0.982-0.556c0.232-1.163,0.35-1.757,0.35-1.784
		c0-0.512-0.283-0.965-0.855-1.361l-4.34-2.807c-1.674-1.049-2.504-2.82-2.504-5.314c0-1.36,0.176-2.534,0.537-3.528
		c-1.101-1.617-1.65-3.386-1.65-5.314c0-2.012,0.546-3.749,1.634-5.209c1.088-1.459,2.36-2.19,3.821-2.19
		c0.863,0,1.806,0.356,2.82,1.063c0.526-0.878,0.793-1.912,0.793-3.102l1.457-0.595c0.021,0.142,0.031,0.368,0.031,0.677
		c0,1.617-0.369,3.092-1.111,4.424C115.613,15.948,116.125,17.591,116.125,19.519z M113.366,23.261
		c0.801-1.05,1.204-2.296,1.204-3.742c0-1.445-0.394-2.686-1.174-3.722c-0.78-1.034-1.715-1.55-2.789-1.55
		c-0.657,0-1.248,0.184-1.776,0.553v9.439c0.575,0.395,1.162,0.594,1.776,0.594C111.641,24.833,112.562,24.31,113.366,23.261z"/>
	<path fill="#70CCD8" d="M121.066,26.789h-3.709V0.429h3.709V26.789z"/>
	<path fill="#70CCD8" d="M133.24,18.583h-7.196v5.611c0.634,0.369,1.215,0.554,1.742,0.554c1.181,0,2.178-0.608,2.981-1.828
		l1.426,0.894c-0.487,0.908-1.12,1.629-1.904,2.168c-0.781,0.539-1.616,0.809-2.503,0.809c-1.501,0-2.787-0.723-3.866-2.167
		c-1.078-1.447-1.617-3.175-1.617-5.189c0-2.039,0.543-3.783,1.635-5.228c1.086-1.448,2.369-2.169,3.85-2.169
		c1.354,0,2.559,0.631,3.615,1.893C132.456,15.188,133.068,16.741,133.24,18.583z M131.116,16.585
		c-0.761-1.643-1.871-2.467-3.33-2.467c-0.72,0-1.3,0.17-1.742,0.51v1.957H131.116z"/>
	<path fill="#70CCD8" d="M139.55,20.965c0.103,0.481,0.156,0.907,0.156,1.274c0,0.936-0.269,1.85-0.808,2.744
		c-0.539,0.892-1.099,1.578-1.682,2.061c-0.58,0.48-1.199,0.907-1.854,1.275l-0.381-1.318c0.338-0.169,0.586-0.303,0.746-0.404
		c0.156-0.1,0.317-0.268,0.476-0.51c0.159-0.24,0.237-0.518,0.237-0.827c-0.063-0.456-0.104-0.723-0.129-0.809l-1.646-6.081
		c-0.126-0.453-0.189-0.878-0.189-1.275c0-1.389,0.447-2.615,1.348-3.678c0.896-1.062,1.927-1.85,3.09-2.359l0.35,1.318
		c-0.338,0.141-0.593,0.263-0.76,0.361c-0.171,0.1-0.335,0.275-0.494,0.531c-0.156,0.256-0.234,0.553-0.234,0.893
		c0.063,0.397,0.113,0.668,0.158,0.808L139.55,20.965z"/>
</g>
<g>
	<path fill="#666666" stroke="#666666" stroke-width="0.2" stroke-miterlimit="10" d="M37.323,50.233l-5.813-6.18h-0.034v6.18
		h-0.251v-6.435h0.355l5.824,6.172h0.035v-6.172h0.251v6.435H37.323z"/>
	<path fill="#666666" stroke="#666666" stroke-width="0.2" stroke-miterlimit="10" d="M48.33,50.233l-0.961-1.845h-4.703
		l-0.996,1.845h-0.274l3.513-6.435h0.32l3.376,6.435H48.33z M45.058,43.926l-2.299,4.291h4.531L45.058,43.926z"/>
	<path fill="#666666" stroke="#666666" stroke-width="0.2" stroke-miterlimit="10" d="M52.312,50.233v-6.435h0.251v6.435H52.312z"/>
	<path fill="#666666" stroke="#666666" stroke-width="0.2" stroke-miterlimit="10" d="M57.278,50.233v-6.435h0.251v6.254h4.028
		v0.181H57.278z"/>
	<path fill="#666666" stroke="#666666" stroke-width="0.2" stroke-miterlimit="10" d="M74.898,48.688
		c0,0.272-0.066,0.517-0.199,0.732c-0.134,0.215-0.312,0.397-0.532,0.545c-0.223,0.148-0.482,0.261-0.785,0.336
		c-0.301,0.076-0.615,0.114-0.944,0.114c-0.502,0-0.962-0.072-1.378-0.215c-0.416-0.141-0.762-0.334-1.035-0.576l0.194-0.137
		c0.29,0.249,0.627,0.436,1.013,0.56c0.385,0.124,0.783,0.186,1.195,0.186c0.298,0,0.58-0.034,0.847-0.104
		c0.268-0.068,0.505-0.169,0.71-0.3c0.205-0.129,0.367-0.29,0.486-0.481c0.118-0.19,0.178-0.41,0.178-0.659
		c0-0.248-0.065-0.456-0.195-0.626c-0.131-0.17-0.297-0.315-0.504-0.438c-0.205-0.12-0.439-0.223-0.703-0.304
		c-0.264-0.082-0.528-0.156-0.796-0.223c-0.335-0.085-0.642-0.175-0.92-0.269c-0.279-0.094-0.519-0.208-0.722-0.345
		c-0.202-0.137-0.358-0.3-0.469-0.491c-0.11-0.19-0.166-0.423-0.166-0.695c0-0.268,0.066-0.505,0.2-0.714
		c0.133-0.209,0.314-0.385,0.544-0.527c0.229-0.142,0.493-0.25,0.795-0.327c0.302-0.075,0.62-0.113,0.955-0.113
		c0.412,0,0.803,0.062,1.174,0.187c0.369,0.124,0.673,0.302,0.909,0.531l-0.194,0.138c-0.214-0.213-0.487-0.378-0.818-0.496
		c-0.332-0.118-0.692-0.178-1.081-0.178c-0.274,0-0.543,0.031-0.808,0.091c-0.264,0.062-0.501,0.153-0.715,0.278
		c-0.213,0.124-0.385,0.28-0.515,0.468c-0.131,0.188-0.194,0.409-0.194,0.663c0,0.248,0.058,0.459,0.172,0.632
		s0.267,0.32,0.457,0.44c0.191,0.122,0.406,0.222,0.647,0.3c0.24,0.079,0.485,0.152,0.736,0.22c0.344,0.09,0.664,0.183,0.962,0.276
		s0.559,0.207,0.785,0.34c0.225,0.133,0.398,0.296,0.525,0.486C74.835,48.186,74.898,48.416,74.898,48.688z"/>
	<path fill="#666666" stroke="#666666" stroke-width="0.2" stroke-miterlimit="10" d="M85.151,50.233l-0.963-1.845h-4.701
		l-0.996,1.845h-0.275l3.514-6.435h0.32l3.375,6.435H85.151z M81.878,43.926l-2.3,4.291h4.532L81.878,43.926z"/>
	<path fill="#666666" stroke="#666666" stroke-width="0.2" stroke-miterlimit="10" d="M89.132,50.233v-6.435h0.251v6.254h4.027
		v0.181H89.132z"/>
	<path fill="#666666" stroke="#666666" stroke-width="0.2" stroke-miterlimit="10" d="M105.06,47.017
		c0,0.497-0.105,0.953-0.314,1.368c-0.21,0.415-0.5,0.772-0.869,1.071c-0.37,0.301-0.811,0.535-1.322,0.705
		c-0.511,0.17-1.064,0.255-1.66,0.255c-0.594,0-1.147-0.085-1.657-0.255c-0.512-0.17-0.952-0.404-1.322-0.705
		c-0.37-0.299-0.66-0.656-0.87-1.071c-0.209-0.415-0.313-0.871-0.313-1.368s0.104-0.953,0.313-1.368
		c0.21-0.415,0.5-0.771,0.87-1.071c0.37-0.301,0.808-0.535,1.315-0.705c0.507-0.169,1.062-0.255,1.664-0.255
		c0.604,0,1.158,0.086,1.666,0.255c0.507,0.17,0.946,0.404,1.316,0.705c0.369,0.3,0.659,0.656,0.869,1.071
		C104.954,46.063,105.06,46.52,105.06,47.017z M104.809,47.017c0-0.448-0.096-0.867-0.286-1.259
		c-0.191-0.392-0.46-0.732-0.806-1.021c-0.349-0.292-0.763-0.521-1.242-0.687c-0.481-0.167-1.008-0.251-1.581-0.251
		c-0.571,0-1.098,0.084-1.578,0.251c-0.48,0.166-0.895,0.395-1.241,0.687c-0.347,0.289-0.615,0.63-0.808,1.021
		c-0.19,0.392-0.285,0.811-0.285,1.259s0.094,0.867,0.279,1.259c0.188,0.392,0.453,0.731,0.796,1.021
		c0.344,0.292,0.756,0.521,1.237,0.687c0.479,0.167,1.014,0.25,1.6,0.25c0.589,0,1.122-0.083,1.604-0.25
		c0.479-0.165,0.892-0.395,1.235-0.687c0.343-0.29,0.607-0.63,0.796-1.021C104.715,47.884,104.809,47.465,104.809,47.017z"/>
	<path fill="#666666" stroke="#666666" stroke-width="0.2" stroke-miterlimit="10" d="M115.483,50.233l-5.813-6.18h-0.033v6.18
		h-0.253v-6.435h0.356l5.823,6.172h0.034v-6.172h0.252v6.435H115.483z"/>
</g>
</svg>
