<?xml version="1.0" encoding="utf-8"?>
<!-- Generator: Adobe Illustrator 16.0.0, SVG Export Plug-In . SVG Version: 6.00 Build 0)  -->
<!DOCTYPE svg PUBLIC "-//W3C//DTD SVG 1.1//EN" "http://www.w3.org/Graphics/SVG/1.1/DTD/svg11.dtd">
<svg version="1.1" id="Capa_1" xmlns="http://www.w3.org/2000/svg" xmlns:xlink="http://www.w3.org/1999/xlink" x="0px" y="0px"
	 width="42.5px" height="40px" viewBox="10.5 0 42.5 40" enable-background="new 10.5 0 42.5 40" xml:space="preserve">
<g>
	<g>
		<g>
			<polygon fill="#70CCD8" points="31.444,19.956 26.464,19.956 24.854,21.566 33.055,21.566 			"/>
			<path fill="#70CCD8" d="M13.759,38.742L13.759,38.742c1.68,1.676,4.4,1.676,6.08,0l0.554-0.554h-7.097
				C13.435,38.385,13.59,38.57,13.759,38.742z"/>
			<path fill="#70CCD8" d="M51.24,1.26c-1.679-1.679-4.4-1.679-6.08,0L29.964,16.456l2.28,2.28l0.001,0.001l3.799,3.799L51.24,7.341
				C52.92,5.662,52.92,2.939,51.24,1.26z"/>
			<polygon fill="#70CCD8" points="28.955,17.466 27.893,18.527 30.016,18.527 			"/>
			<path fill="#70CCD8" d="M12.636,36.76h9.186l1.61-1.61H12.539C12.464,35.688,12.497,36.234,12.636,36.76z"/>
			<polygon fill="#70CCD8" points="18.777,27.644 30.938,27.644 32.548,26.033 20.387,26.033 			"/>
			<path fill="#70CCD8" d="M13.759,32.661c-0.312,0.312-0.573,0.669-0.776,1.06H24.86l1.61-1.609H14.31L13.759,32.661z"/>
			<polygon fill="#70CCD8" points="23.426,22.994 21.815,24.605 33.977,24.605 35.035,23.547 34.483,22.994 			"/>
			<polygon fill="#70CCD8" points="15.738,30.682 27.899,30.682 29.51,29.072 17.348,29.072 			"/>
		</g>
	</g>
</g>
</svg>
