<?xml version="1.0" encoding="utf-8"?>
<!-- Generator: Adobe Illustrator 16.0.0, SVG Export Plug-In . SVG Version: 6.00 Build 0)  -->
<!DOCTYPE svg PUBLIC "-//W3C//DTD SVG 1.1//EN" "http://www.w3.org/Graphics/SVG/1.1/DTD/svg11.dtd">
<svg version="1.1" id="Layer_1" xmlns="http://www.w3.org/2000/svg" xmlns:xlink="http://www.w3.org/1999/xlink" x="0px" y="0px"
	 width="57.5px" height="68.75px" viewBox="0 0 57.5 68.75" enable-background="new 0 0 57.5 68.75" xml:space="preserve">
<g id="TCuTk0_1_">
	<g>
		<g>
			<path fill-rule="evenodd" clip-rule="evenodd" fill="#FFFFFF" d="M24.772,37.352c2.318,3.857,4.62,7.725,6.968,11.566
				c0.619,1.017,1.355,1.965,2.074,2.919c0.223,0.297,0.545,0.535,0.859,0.747c1.578,1.065,2.677,0.89,3.643-0.745
				c1.078-1.826,2.021-3.737,3.023-5.61c0.62-1.164,1.284-1.592,2.552-1.312c1.178,0.258,2.374,0.613,3.44,1.162
				c3.282,1.688,6.181,3.879,8.335,6.943c0.709,1.008,0.83,1.988,0.217,3.141c-0.772,1.453-1.38,2.994-2.062,4.496
				c-1.279,2.812-3.551,4.622-6.265,5.822c-7.723,3.411-14.595,1.355-20.941-3.527c-2.332-1.796-4.14-4.098-5.77-6.521
				c-2.578-3.833-5.201-7.641-7.627-11.569c-1.948-3.151-3.66-6.452-5.423-9.715C6.739,33.191,5.694,31.22,4.8,29.186
				C1.912,22.623,1.548,16.005,4.794,9.45c1.927-3.891,5.022-6.529,9.105-8.075c1.968-0.745,3.938-0.577,5.935-0.465
				c1.097,0.062,2.193,0.223,3.289,0.216c0.931-0.006,1.53,0.403,2.013,1.124c1.064,1.579,1.567,3.371,1.947,5.2
				c0.541,2.606,0.86,5.232,0.46,7.897c-0.011,0.071-0.024,0.141-0.036,0.211c-0.465,2.586-1.152,3.124-3.748,3.069
				c-1.861-0.039-3.729-0.086-5.583,0.028c-1.715,0.105-2.293,0.933-2.224,2.665c0.057,1.409,0.782,2.561,1.451,3.701
				c1.803,3.077,3.698,6.101,5.552,9.148c0.635,1.043,1.26,2.092,1.889,3.138C24.821,37.322,24.796,37.337,24.772,37.352z"/>
		</g>
	</g>
</g>
</svg>
