<?xml version="1.0" encoding="utf-8"?>
<!-- Generator: Adobe Illustrator 16.0.0, SVG Export Plug-In . SVG Version: 6.00 Build 0)  -->
<!DOCTYPE svg PUBLIC "-//W3C//DTD SVG 1.1//EN" "http://www.w3.org/Graphics/SVG/1.1/DTD/svg11.dtd">
<svg version="1.1" id="Capa_1" xmlns="http://www.w3.org/2000/svg" xmlns:xlink="http://www.w3.org/1999/xlink" x="0px" y="0px"
	 width="48px" height="47.333px" viewBox="8.667 -2.833 48 47.333" enable-background="new 8.667 -2.833 48 47.333"
	 xml:space="preserve">
<g>
	<g>
		<g>
			<path fill="#70CCD8" d="M18.399,9.25c0.218,0.002,0.429-0.084,0.583-0.241c0.165-0.155,0.257-0.371,0.257-0.598
				c-0.003-0.672,0.267-1.317,0.75-1.785c0.999-0.947,2.565-0.939,3.553,0.017c0.474,0.466,0.738,1.104,0.733,1.768v5.036
				c0,0.464,0.376,0.839,0.839,0.839c0.219,0.002,0.429-0.085,0.582-0.241c0.166-0.155,0.259-0.372,0.258-0.599V8.411
				c0.001-1.39,1.128-2.517,2.518-2.518c1.387,0.007,2.511,1.13,2.518,2.518V22.68c0,0.463,0.376,0.838,0.839,0.838
				c0.219,0.002,0.429-0.085,0.583-0.241c0.164-0.153,0.257-0.37,0.257-0.597V5.263c-0.028-1.889,0.488-3.748,1.486-5.354
				c0.175-0.29,0.378-0.562,0.607-0.812C35.2-1.371,35.557-1.911,35.811-2.5H20.078c-0.668-0.001-1.309,0.263-1.781,0.735
				S17.56-0.65,17.561,0.018v8.393C17.56,8.874,17.936,9.25,18.399,9.25z"/>
			<path fill="#70CCD8" d="M28.471,31.07c-7.791,0-15.649-1.127-19.128-3.304c1.284,9.578,9.454,16.729,19.116,16.733
				c9.663,0.005,17.84-7.137,19.137-16.712c-3.124,1.948-9.659,2.94-15.487,3.199C30.972,31.044,29.78,31.07,28.471,31.07z"/>
			<path fill="#70CCD8" d="M34.347,21.221v1.457c-0.008,1.389-1.131,2.513-2.519,2.518c-1.39,0-2.517-1.127-2.518-2.518v-1.674
				C29.032,21.002,28.75,21,28.471,21c-12.674,0-19.304,2.73-19.304,4.195c0,1.466,6.63,4.197,19.304,4.197
				c1.281,0,2.446-0.027,3.559-0.083c10.138-0.452,15.744-2.719,15.744-4.114C47.774,23.934,43.113,21.899,34.347,21.221z"/>
			<path fill="#70CCD8" d="M53.649-2.5H37.573c-0.296,1.022-0.834,1.958-1.569,2.725c-0.162,0.176-0.306,0.369-0.43,0.574
				c-0.339,0.543-0.605,1.125-0.796,1.737h18.871c1.392,0,2.519-1.127,2.519-2.518C56.167-1.373,55.04-2.5,53.649-2.5z"/>
		</g>
	</g>
</g>
</svg>
