<?xml version="1.0" encoding="utf-8"?>
<!-- Generator: Adobe Illustrator 16.0.0, SVG Export Plug-In . SVG Version: 6.00 Build 0)  -->
<!DOCTYPE svg PUBLIC "-//W3C//DTD SVG 1.1//EN" "http://www.w3.org/Graphics/SVG/1.1/DTD/svg11.dtd">
<svg version="1.1" id="Capa_1" xmlns="http://www.w3.org/2000/svg" xmlns:xlink="http://www.w3.org/1999/xlink" x="0px" y="0px"
	 width="512px" height="512px" viewBox="0 0 512 512" enable-background="new 0 0 512 512" xml:space="preserve">
<path fill="#70CCD8" d="M455.951,481.463c-2.463-13.227-16.15-22.837-30.576-31.252c-29.188-17.026-51.191-44.777-65.409-82.48
	c-11.894-31.55-33.63-76.231-52.806-115.658c-12.447-25.589-23.195-47.691-28.191-60.016c-12.213-30.124-17.132-61.54-21.484-93.76
	c-4.238-31.352-14.441-89.249-14.543-89.83C242.077,3.572,237.821,0,232.848,0H65.927c-3.72,0-7.148,2.017-8.958,5.268
	c-1.81,3.251-1.711,7.226,0.249,10.387c25.192,40.589,91.011,155.086,93.002,196.919c1.138,23.896-3.303,46.171-7.22,65.822
	c-4.804,24.09-8.95,44.894-1.197,61.513c14.828,31.773,38.155,36.617,62.773,39.079l2.111,0.21
	c24.416,2.422,43.702,4.335,61.719,25.958c7.457,8.95,13.729,18.896,19.793,28.516c11.156,17.692,21.695,34.406,38.46,43.72
	c13.272,7.372,24.731,10.164,34.842,12.627c8.668,2.111,16.854,4.107,25.876,8.8c12.54,6.519,27.07,13.186,39.787,13.186
	c9.536,0,17.557-3.724,23.189-10.767C456.573,493.462,456.829,486.193,455.951,481.463z"/>
</svg>
